<?xml version="1.0" encoding="UTF-8"?>
<svg width="85px" height="29px" viewBox="0 0 85 29" version="1.1" xmlns="http://www.w3.org/2000/svg">
  <title>logo</title>
  <defs>
    <linearGradient x1="28.3415465%" y1="58.0554096%" x2="71.6581756%" y2="42.3345811%" id="linearGradient-1">
      <stop stop-color="#D53AE9" offset="0%"></stop>
      <stop stop-color="#1BFBBB" offset="100%"></stop>
    </linearGradient>
  </defs>
  <g id="页面-1" stroke="none" stroke-width="1" fill="none" fill-rule="evenodd">
    <g id="桌面端-V2" transform="translate(-63.000000, -25.000000)" fill-rule="nonzero">
      <g id="logo" transform="translate(63.000000, 25.000000)">
        <g id="Group1" transform="translate(30.000000, 7.000000)" fill="#FFFFFF">
          <path
            d="M17.6818657,0.841088764 C16.8903306,1.37240567 16.3164598,1.97713639 15.9577515,2.65621415 C15.7347706,3.01301772 15.5690205,3.48056415 15.4611265,4.05854238 C15.3591745,4.63683169 15.308824,5.78034513 15.308824,7.48877163 C15.308824,9.17013456 15.3591745,10.3061822 15.4611265,10.8981588 C15.5146044,11.2142115 15.5824681,11.4764481 15.6634668,11.6845576 C15.7510329,11.8867567 15.8495448,12.0989101 15.9577515,12.3207069 C16.3164598,12.9997847 16.8903306,13.598605 17.6818657,14.1162346 C18.459015,14.6540841 19.4294352,14.9365406 20.5925009,14.9636042 C21.7683887,14.9365406 22.7488165,14.6540841 23.5334714,14.1162346 C24.3106207,13.598605 24.871982,12.9997847 25.21693,12.3207069 C25.4671189,11.9639034 25.6394365,11.4901354 25.7338828,10.8981588 C25.8217616,10.3061822 25.8658574,9.17013456 25.8658574,7.48877163 C25.8658574,5.78034513 25.8217616,4.63683169 25.7338828,4.05854238 C25.6394365,3.48056415 25.4671189,3.01301772 25.21693,2.65621415 C24.871982,1.97713639 24.3106207,1.37240567 23.5334714,0.841088764 C22.7488165,0.303239271 21.7683887,0.0266931755 20.5925009,0.0139390811 C19.4294352,0.0266931755 18.459015,0.303239271 17.6818657,0.841088764 Z M19.2336624,12.4009644 C18.847746,12.2130748 18.5365736,11.9670141 18.3001451,11.6649599 C18.0093005,11.3489072 17.8169677,10.9351768 17.721896,10.4237687 C17.618693,9.93320269 17.564277,9.01210822 17.5602114,7.65986314 L17.5595859,7.48877163 C17.5595859,6.04258175 17.614002,5.05740573 17.721896,4.53293248 C17.8169677,4.0355228 18.0093005,3.62863608 18.3001451,3.3125834 C18.5365736,3.00959589 18.847746,2.75762475 19.2336624,2.5554257 C19.6120731,2.36100353 20.0652278,2.25617109 20.5925009,2.243417 C21.1263414,2.25617109 21.5898164,2.36100353 21.9816747,2.5554257 C22.353518,2.75762475 22.65093,3.00959589 22.8745364,3.3125834 C23.1644428,3.62863608 23.3642812,4.0355228 23.4721751,4.53293248 C23.5700615,5.0362526 23.620412,5.96481288 23.6244776,7.31705796 L23.6244776,7.48877163 C23.6244776,8.93433935 23.5741271,9.91267171 23.4721751,10.4237687 C23.3642812,10.9351768 23.1644428,11.3489072 22.8745364,11.6649599 C22.65093,11.9670141 22.353518,12.2130748 21.9816747,12.4009644 C21.5898164,12.6233834 21.1263414,12.7341263 20.5925009,12.7341263 C20.0652278,12.7341263 19.6120731,12.6233834 19.2336624,12.4009644 Z M2.09415901,1.20411384 C1.23538561,1.99051264 0.805998909,3.02670504 0.805998909,4.31113567 C0.805998909,5.38030207 1.14750676,6.2880203 1.83052246,7.03460143 C2.49289757,7.76096266 3.45956494,8.22819803 4.73083729,8.43692967 C5.4407483,8.53771812 6.09280312,8.62886323 6.68793997,8.70912071 C7.98642036,8.93091752 8.62846763,9.59039752 8.61470724,10.6866275 C8.58843741,12.0245631 7.61457711,12.7070627 5.69406456,12.7341263 C4.07158954,12.72075 2.67209537,12.2326726 1.49558207,11.2711383 L0.0254095389,12.9456576 C1.60066141,14.291059 3.48333288,14.9636042 5.67373671,14.9636042 C9.06129443,14.9231644 10.7922889,13.4971944 10.8664073,10.6866275 C10.8664073,9.6439025 10.5386599,8.72934061 9.8825395,7.94231967 C9.22016438,7.14223355 8.19564083,6.64793462 6.80959432,6.45942288 C6.10656351,6.37232175 5.55208236,6.29455288 5.1464636,6.22767166 C4.41622475,6.09328705 3.88551154,5.85064818 3.55463672,5.50131043 C3.22313643,5.15788311 3.05738628,4.7749492 3.05738628,4.3512644 C3.07083393,3.644812 3.31758274,3.11380617 3.79794543,2.75762475 C4.25798027,2.41419743 4.83247653,2.243417 5.52205969,2.243417 C6.85369011,2.26985841 8.07398648,2.64688189 9.18263605,3.37262096 L10.4301405,1.53727567 C9.07130198,0.562054065 7.47196944,0.0537567416 5.63370649,0.0139390811 C4.10567778,0.0266931755 2.92572437,0.42424763 2.09415901,1.20411384 L2.09415901,1.20411384 Z M30.2677754,0.13494744 L30.2677754,14.8425958 L35.2878157,14.8425958 C36.3964652,14.8425958 37.3327972,14.5999569 38.0971243,14.1162346 C38.8673934,13.6654862 39.4694104,13.0937295 39.9022372,12.4009644 C40.0645473,12.1387278 40.2030894,11.8867567 40.3178635,11.6447399 C40.4260702,11.3961906 40.5073816,11.1137341 40.5611722,10.7973704 C40.6759464,10.1714865 40.7338026,9.06872395 40.7338026,7.48877163 C40.7338026,6.00214194 40.6962742,4.95661727 40.6221558,4.3512644 C40.527084,3.74622261 40.3009758,3.1679333 39.9428929,2.61639649 C38.9421373,0.975473369 37.4413166,0.148323685 35.4398054,0.13494744 L30.2677754,0.13494744 L30.2677754,0.13494744 Z M50.3527347,0.147783789 L54.949856,14.9436953 L52.7210628,14.9436953 L49.2790074,3.00274981 L46.2577317,14.9436953 L44.0566213,14.9436953 L48.1070123,0.147783789 L50.3527347,0.147783789 Z M37.8231675,3.48398598 C38.1274597,3.82679116 38.3197924,4.27411769 38.4014166,4.8256545 C38.4592727,5.35043882 38.4896081,6.20465207 38.4924228,7.38953855 L38.4924228,7.5690291 C38.4924228,8.88083437 38.4617746,9.77486528 38.4014166,10.2526772 C38.3335528,10.7367106 38.1743701,11.1367537 37.924494,11.4528064 C37.3565652,12.3070196 36.4440011,12.7341263 35.1864892,12.7341263 L32.5091552,12.7341263 L32.5091552,2.243417 L35.1864892,2.243417 C36.3223468,2.21635343 37.2008226,2.62977273 37.8231675,3.48398598 Z"
            id="Shape1"></path>
        </g>
        <g id="Group" fill="url(#linearGradient-1)">
          <path d="M0,25.6483462 L2.73379109,26.7351221 L2.73379109,1.08708633 L0,0 L0,25.6483462 L0,25.6483462 Z M5.46822946,27.8548024 L8.20266783,28.9412679 L23.9739918,17.7640213 L23.9739918,12.7215797 L21.2395534,11.6348038 L21.2395534,16.6772454 L8.20266783,25.9171688 L8.20266783,3.29323213 L5.46822946,2.2061458 L5.46822946,27.8548024 Z M15.7706767,14.4707892 L10.6966413,18.0673004 L10.6196149,21.146654 L18.5054387,15.5572547 L18.5054387,10.5145027 L15.7706767,9.42772675 L15.7706767,14.4707892 L15.7706767,14.4707892 Z" id="Shape"></path>
        </g>
      </g>
    </g>
  </g>
</svg>
