<svg xmlns="http://www.w3.org/2000/svg" width="85" height="29" xmlns:v="https://vecta.io/nano"><defs><linearGradient x1="28.3415465%" y1="58.0554096%" x2="71.6581756%" y2="42.3345811%" id="A"><stop stop-color="#d53ae9" offset="0%"/><stop stop-color="#1bfbbb" offset="100%"/></linearGradient></defs><path d="M47.682 7.841c-.792.531-1.365 1.136-1.724 1.815-.223.357-.389.824-.497 1.402-.102.578-.152 1.722-.152 3.43l.152 3.409a4.08 4.08 0 0 0 .202.786l.294.636c.359.679.933 1.278 1.724 1.796.777.538 1.748.82 2.911.847 1.176-.027 2.156-.31 2.941-.847.777-.518 1.339-1.116 1.683-1.796.25-.357.423-.831.517-1.423.088-.592.132-1.728.132-3.409l-.132-3.43c-.094-.578-.267-1.046-.517-1.402-.345-.679-.906-1.284-1.683-1.815-.785-.538-1.765-.814-2.941-.827-1.163.013-2.133.289-2.911.827zm1.552 11.56c-.386-.188-.697-.434-.934-.736-.291-.316-.483-.73-.578-1.241-.103-.491-.158-1.412-.162-2.764v-.171c0-1.446.054-2.431.162-2.956.095-.497.287-.904.578-1.22.236-.303.548-.555.934-.757.378-.194.832-.299 1.359-.312.534.013.997.118 1.389.312.372.202.669.454.893.757.29.316.49.723.598 1.22.098.503.148 1.432.152 2.784v.172c0 1.446-.05 2.424-.152 2.935-.108.511-.308.925-.598 1.241a2.48 2.48 0 0 1-.893.736c-.392.222-.855.333-1.389.333-.527 0-.98-.111-1.359-.333zM32.094 8.204c-.859.786-1.288 1.823-1.288 3.107 0 1.069.342 1.977 1.025 2.723.662.726 1.629 1.194 2.9 1.402l1.957.272c1.298.222 1.941.881 1.927 1.978-.026 1.338-1 2.02-2.921 2.047-1.622-.013-3.022-.501-4.198-1.463l-1.47 1.675c1.575 1.345 3.458 2.018 5.648 2.018 3.388-.04 5.119-1.466 5.193-4.277 0-1.043-.328-1.957-.984-2.744-.662-.8-1.687-1.294-3.073-1.483l-1.663-.232c-.73-.134-1.261-.377-1.592-.726-.332-.343-.497-.726-.497-1.15.013-.706.26-1.237.741-1.594.46-.343 1.035-.514 1.724-.514a6.8 6.8 0 0 1 3.661 1.129l1.248-1.835c-1.359-.975-2.958-1.484-4.796-1.523-1.528.013-2.708.41-3.54 1.19h0zm28.174-1.069v14.708h5.02c1.109 0 2.045-.243 2.809-.726.77-.451 1.372-1.023 1.805-1.715.162-.262.301-.514.416-.756.108-.249.19-.531.243-.847.115-.626.173-1.729.173-3.309l-.112-3.138c-.095-.605-.321-1.183-.679-1.735-1.001-1.641-2.502-2.468-4.503-2.481h-5.172 0zm20.085.013l4.597 14.796h-2.229l-3.442-11.941-3.021 11.941h-2.201l4.05-14.796h2.246zm-12.53 3.336c.304.343.497.79.578 1.342.058.525.088 1.379.091 2.564v.179l-.091 2.684c-.068.484-.227.884-.477 1.2-.568.854-1.48 1.281-2.738 1.281h-2.677V9.243h2.677c1.136-.027 2.014.386 2.637 1.241z" fill="#fff"/><path d="M0 25.648l2.734 1.087V1.087L0 0v25.648h0zm5.468 2.206l2.734 1.086 15.771-11.177v-5.042l-2.734-1.087v5.042l-13.037 9.24V3.293L5.468 2.206v25.649zm10.302-13.384l-5.074 3.597-.077 3.079 7.886-5.589v-5.043l-2.735-1.087v5.043h0z" fill="url(#A)"/></svg>