<svg width="30" height="30" viewBox="0 0 30 30" fill="none" xmlns="http://www.w3.org/2000/svg">
<path fill-rule="evenodd" clip-rule="evenodd" d="M9.69867 7.4751H20.6502C21.5737 7.4751 22.3256 8.22699 22.3256 9.15869V23.8206L20.5684 22.2678L19.5795 21.3524L18.5334 20.3799L18.9666 21.8918H9.69867C8.77515 21.8918 8.02325 21.1399 8.02325 20.2083V9.15869C8.02325 8.22699 8.77515 7.4751 9.69867 7.4751ZM16.9561 17.4867C17.2013 17.7973 17.4955 18.1487 17.4955 18.1487C19.3017 18.0915 19.9963 16.9065 19.9963 16.9065C19.9963 14.2748 18.8195 12.1417 18.8195 12.1417C17.6426 11.2591 16.5229 11.2836 16.5229 11.2836L16.4085 11.4144C17.7979 11.8394 18.4435 12.4523 18.4435 12.4523C17.5936 11.9865 16.7599 11.7576 15.9835 11.6677C15.3951 11.6023 14.8312 11.6187 14.3326 11.6841C14.2898 11.6841 14.2532 11.6903 14.212 11.6973C14.206 11.6983 14.1999 11.6994 14.1937 11.7004C13.9076 11.7249 13.213 11.8312 12.3385 12.2153C12.0361 12.3542 11.8563 12.4523 11.8563 12.4523C11.8563 12.4523 12.5346 11.8067 14.0057 11.3817L13.924 11.2836C13.924 11.2836 12.8043 11.2591 11.6274 12.1417C11.6274 12.1417 10.4506 14.2748 10.4506 16.9065C10.4506 16.9065 11.1371 18.0915 12.9433 18.1487C12.9433 18.1487 13.2456 17.7809 13.4908 17.4704C12.4529 17.1598 12.0606 16.506 12.0606 16.506C12.0606 16.506 12.1423 16.5632 12.2894 16.6449C12.2976 16.6531 12.3058 16.6613 12.3221 16.6695C12.3344 16.6776 12.3466 16.6838 12.3589 16.6899C12.3712 16.696 12.3834 16.7021 12.3957 16.7103C12.6 16.8247 12.8043 16.9146 12.9923 16.9882C13.3274 17.119 13.7278 17.2497 14.1937 17.3396C14.8066 17.454 15.5258 17.4949 16.3104 17.3478C16.6945 17.2824 17.0868 17.168 17.4955 16.9964C17.7815 16.8901 18.1003 16.7348 18.4353 16.5142C18.4353 16.5142 18.0267 17.1843 16.9561 17.4867ZM12.8615 15.2392C12.8615 14.7407 13.2293 14.332 13.6951 14.332C14.161 14.332 14.5369 14.7407 14.5288 15.2392C14.5288 15.7377 14.161 16.1464 13.6951 16.1464C13.2375 16.1464 12.8615 15.7377 12.8615 15.2392ZM15.8446 15.2392C15.8446 14.7407 16.2124 14.332 16.6782 14.332C17.144 14.332 17.5118 14.7407 17.5118 15.2392C17.5118 15.7377 17.144 16.1464 16.6782 16.1464C16.2205 16.1464 15.8446 15.7377 15.8446 15.2392Z" fill="white"/>
</svg>
