<svg width="30" height="30" viewBox="0 0 30 30" fill="none" xmlns="http://www.w3.org/2000/svg">
<path d="M23.1819 20.7831C21.8957 22.5271 20.2352 23.7302 18.1996 24.4012C17.967 24.442 17.7849 24.4112 17.6837 24.3111C17.6294 24.2615 17.5867 24.2009 17.5586 24.1333C17.5305 24.0657 17.5177 23.9928 17.5211 23.9198V21.173C17.5211 20.3318 17.2885 19.7101 16.8332 19.3196C17.2871 19.2753 17.7371 19.1978 18.1794 19.0878C18.6124 18.9731 19.028 18.8016 19.415 18.5778C19.8406 18.3367 20.1947 18.0556 20.4787 17.7151C20.762 17.3746 20.9946 16.9125 21.1767 16.3417C21.3595 15.7702 21.4506 15.1192 21.4506 14.3768C21.4506 13.3245 21.1066 12.4325 20.4072 11.6907C20.7316 10.8982 20.7013 10.0162 20.306 9.03405C20.0632 8.95322 19.7091 9.00401 19.2431 9.17426C18.8199 9.32456 18.4127 9.51601 18.0277 9.74579L17.5312 10.0562C16.7076 9.82687 15.8556 9.71227 15 9.71575C14.1293 9.71575 13.2889 9.82591 12.4688 10.0562C12.287 9.93339 12.1012 9.81649 11.9117 9.70574C11.6783 9.56553 11.3141 9.39529 10.8075 9.2043C10.3118 9.00401 9.92669 8.95322 9.67306 9.02404C9.28865 10.0062 9.2583 10.8889 9.58202 11.6807C8.89339 12.4325 8.53932 13.3245 8.53932 14.3768C8.53932 15.1192 8.63036 15.7702 8.81318 16.3317C8.99455 16.8932 9.22795 17.3546 9.50181 17.7051C9.78506 18.0556 10.1391 18.3468 10.5647 18.5778C10.9903 18.8081 11.4051 18.9784 11.8004 19.0878C12.243 19.1979 12.6932 19.2753 13.1473 19.3196C12.7925 19.6293 12.58 20.0807 12.4991 20.6622C12.3099 20.753 12.1087 20.817 11.9015 20.8525C11.6542 20.8956 11.4033 20.9158 11.1522 20.9126C10.8581 20.9126 10.5749 20.8225 10.2909 20.6322C10.0076 20.4419 9.76483 20.1708 9.56251 19.8203C9.40182 19.5503 9.18419 19.3178 8.92446 19.1386C8.67083 18.9584 8.44827 18.8575 8.27629 18.8274L8.01327 18.7874C7.83046 18.7874 7.69894 18.8081 7.62813 18.8475C7.55732 18.8875 7.53708 18.9376 7.56743 18.9977C7.59778 19.0578 7.63825 19.1186 7.68883 19.1787C7.73941 19.2388 7.80011 19.2888 7.8608 19.3389L7.95185 19.399C8.14478 19.4891 8.33699 19.6501 8.5292 19.8904C8.72213 20.1308 8.85364 20.3518 8.94469 20.5521L9.0762 20.8525C9.18748 21.1837 9.37969 21.4541 9.65355 21.6544C9.92669 21.8554 10.2201 21.9856 10.5344 22.0457C10.848 22.1057 11.1522 22.1358 11.4456 22.1358C11.739 22.1358 11.9825 22.1258 12.1747 22.0857L12.4789 22.0356C12.4789 22.3661 12.4789 22.7574 12.4883 23.1987C12.4883 23.6401 12.4991 23.8804 12.4991 23.9005C12.5008 23.9741 12.4862 24.0472 12.4564 24.1146C12.4265 24.1821 12.3822 24.2423 12.3264 24.291C12.2151 24.3912 12.033 24.4212 11.8004 24.3812C9.76483 23.7095 8.10432 22.507 6.81811 20.7624C5.52178 19.0385 4.88373 17.0735 4.88373 14.8982C4.88373 13.0842 5.33968 11.4096 6.24075 9.87598C7.12394 8.36003 8.39533 7.10144 9.92669 6.22715C11.4759 5.33515 13.1668 4.88379 15 4.88379C16.8332 4.88379 18.5241 5.33515 20.0733 6.22715C21.6047 7.10144 22.8761 8.36003 23.7593 9.87598C24.6603 11.3996 25.1163 13.0842 25.1163 14.8982C25.1163 17.0835 24.4681 19.0385 23.1819 20.7831Z" fill="white"/>
</svg>
