<svg width="30" height="30" viewBox="0 0 30 30" fill="none" xmlns="http://www.w3.org/2000/svg">
<path d="M7.68886 20.1832C9.28528 20.3423 10.7277 19.9304 12.0489 18.9125C11.86 18.8814 11.7058 18.8653 11.5559 18.8297C10.4952 18.5778 9.75727 17.9212 9.3361 16.8738C9.26503 16.6971 9.28489 16.6838 9.47038 16.6996C9.82115 16.7296 10.1721 16.7378 10.5641 16.635C10.2187 16.5255 9.9216 16.4114 9.65284 16.2305C8.79098 15.6502 8.32017 14.8216 8.21691 13.7589C8.21426 13.7315 8.21477 13.7039 8.21449 13.6764C8.21256 13.4799 8.22412 13.4728 8.39697 13.5598C8.74151 13.7333 9.103 13.8377 9.5327 13.8573C9.35803 13.7228 9.22392 13.5995 9.09785 13.4668C8.19291 12.5136 7.97523 10.9718 8.57669 9.78498C8.63585 9.66822 8.67043 9.65216 8.75899 9.76245C9.49467 10.679 10.3708 11.4168 11.3873 11.9638C12.3836 12.4999 13.4403 12.8311 14.5613 12.9203C14.8487 12.9431 14.8441 12.9411 14.8121 12.6283C14.6118 10.6696 16.0057 9.22336 17.5306 9.08383C18.4487 8.99981 19.2385 9.29495 19.9142 9.93818C20.0065 10.0261 20.0889 10.0528 20.2104 10.0246C20.7639 9.89627 21.2831 9.67723 21.7814 9.39886C21.826 9.37397 21.8642 9.32854 21.949 9.34427C21.7315 10.0495 21.3143 10.584 20.7494 11.0125C21.2965 10.9558 21.814 10.7867 22.3224 10.5686C22.3381 10.6514 22.2923 10.6889 22.2635 10.7308C21.9089 11.2478 21.4919 11.7034 21.0094 12.0902C20.9021 12.1762 20.8591 12.2656 20.8619 12.4076C20.9013 14.4035 20.3545 16.2201 19.2723 17.8514C17.9152 19.8974 16.0504 21.1227 13.694 21.5087C11.7746 21.8232 9.94947 21.5179 8.22792 20.5672C8.04002 20.4634 7.85877 20.3464 7.67444 20.2356C7.67925 20.2181 7.68407 20.2007 7.68886 20.1832Z" fill="white"/>
</svg>
