<svg width="24" height="24" viewBox="0 0 24 24" fill="none" xmlns="http://www.w3.org/2000/svg">
<path fill-rule="evenodd" clip-rule="evenodd" d="M17.1202 3.36631C17.0012 3.19072 16.7425 3.19072 16.6235 3.36631L13.2922 8.28159C13.1572 8.48079 13.2999 8.7499 13.5405 8.7499H15.5147V14.1427C15.5147 16.2074 14.4187 17.1212 13.6667 17.7482C13.5602 17.837 13.4605 17.9201 13.3719 17.9999C15.0385 17.7856 18.3719 16.8571 18.3719 13.4999V8.7499H20.2033C20.4439 8.7499 20.5866 8.48079 20.4516 8.28159L17.1202 3.36631Z" fill="white"/>
<path fill-rule="evenodd" clip-rule="evenodd" d="M6.87979 20.6334C6.99879 20.809 7.25746 20.809 7.37646 20.6334L10.7078 15.7182C10.8428 15.519 10.7001 15.2499 10.4595 15.2499H8.48527V9.85704C8.48527 7.79238 9.58127 6.87859 10.3333 6.25159C10.4398 6.16275 10.5395 6.07967 10.6281 5.99989C8.96146 6.21418 5.62813 7.14268 5.62813 10.4999V15.2499H3.79673C3.55609 15.2499 3.41338 15.519 3.5484 15.7182L6.87979 20.6334Z" fill="white"/>
</svg>
