<svg xmlns="http://www.w3.org/2000/svg" width="85" height="28" fill="none" xmlns:v="https://vecta.io/nano"><g clip-path="url(#A)" fill="#fff"><path d="M29.181 13.575c-.023-.622.081-1.242.304-1.822s.562-1.11.995-1.557a4.62 4.62 0 0 1 1.526-1.043c.573-.241 1.191-.364 1.814-.361 2.346 0 3.735 1.375 4.154 2.99l-1.473.496a2.56 2.56 0 0 0-.965-1.507 2.57 2.57 0 0 0-1.717-.508c-1.52 0-3.041 1.106-3.041 3.343s1.485 3.301 3.059 3.301a2.76 2.76 0 0 0 1.722-.54c.497-.368.856-.892 1.02-1.487l1.431.466c-.245.91-.794 1.709-1.556 2.263a4.14 4.14 0 0 1-2.634.786c-.628.012-1.252-.106-1.833-.347a4.56 4.56 0 0 1-2.531-2.63c-.218-.589-.311-1.216-.275-1.843zm11.667 4.598h-1.509V8.767h1.509v3.69a2.25 2.25 0 0 1 .806-.604c.311-.138.649-.203.989-.192 1.562 0 2.316 1.118 2.316 2.512v4.001h-1.467V14.43a1.21 1.21 0 0 0-.041-.544 1.25 1.25 0 0 0-.273-.473 1.21 1.21 0 0 0-.451-.307 1.23 1.23 0 0 0-.54-.081 1.32 1.32 0 0 0-.53.112 1.31 1.31 0 0 0-.44.315c-.123.134-.217.293-.276.465s-.081.355-.065.537l-.03 3.72zm7.482-3.623l1.622-.251c.365-.048.467-.233.467-.454 0-.532-.359-.963-1.197-.963a1.2 1.2 0 0 0-.896.296 1.19 1.19 0 0 0-.289.385c-.069.147-.108.306-.114.467l-1.377-.311c.114-1.094 1.107-2.069 2.664-2.069 1.951 0 2.694 1.106 2.694 2.392v3.139a5.87 5.87 0 0 0 .078 1.017h-1.407a3.9 3.9 0 0 1-.06-.807 2.21 2.21 0 0 1-1.952.999 1.99 1.99 0 0 1-1.483-.495 1.97 1.97 0 0 1-.478-.638 2 2 0 0 1-.188-.775c0-1.154.832-1.776 1.916-1.932zm2.089 1.017v-.287l-1.652.245c-.224.008-.437.101-.595.262a.87.87 0 0 0-.249.599.84.84 0 0 0 .076.335.82.82 0 0 0 .205.276.84.84 0 0 0 .641.207 1.44 1.44 0 0 0 .644-.081c.206-.076.391-.197.543-.355a1.44 1.44 0 0 0 .387-1.203zm4.047-6.932a.99.99 0 0 1 .706.285.98.98 0 0 1 .217.322c.05.121.076.25.076.38a.98.98 0 1 1-1.964 0c0-.258.101-.505.281-.689a.99.99 0 0 1 .683-.297zm-.736 9.568v-6.357h1.491v6.327l-1.491.03zm4.95-.03h-1.508v-6.327h1.472v.843a2.09 2.09 0 0 1 .796-.771 2.1 2.1 0 0 1 1.078-.258c1.544 0 2.287 1.118 2.287 2.512v4.001h-1.508V14.43c0-.777-.353-1.405-1.299-1.405a1.33 1.33 0 0 0-.545.12c-.171.078-.324.191-.449.332a1.33 1.33 0 0 0-.323 1.043v3.654zm5.962 0V8.767h1.508v9.406h-1.508zm4.202-9.538a.99.99 0 0 1 .698.289c.185.185.289.436.289.698a.98.98 0 0 1-1.175.955.98.98 0 0 1-.356-1.775.98.98 0 0 1 .543-.168zm-.742 9.568v-6.357h1.496v6.327l-1.496.03zm4.956-.03H71.55v-6.327h1.466v.843a2.1 2.1 0 0 1 .797-.769 2.11 2.11 0 0 1 1.077-.259c1.55 0 2.293 1.118 2.293 2.512v4.001h-1.508V14.43a1.21 1.21 0 0 0-.041-.544 1.25 1.25 0 0 0-.273-.473 1.23 1.23 0 0 0-.991-.389 1.33 1.33 0 0 0-.992.453 1.32 1.32 0 0 0-.318 1.042v3.654zm9.284-3.653L85 18.173h-1.85l-1.862-2.607-.778.819v1.794h-1.496V8.767h1.496v5.639l2.43-2.559h2.005l-2.604 2.673zM11.307 6.225l6.525 3.743v7.517l-6.507 3.767L4.8 17.514V9.999l6.507-3.773zm0-5.525L8.913 2.087 2.394 5.861 0 7.248v2.763 7.511 2.763l2.394 1.375 6.525 3.743 2.394 1.375 2.394-1.387 6.507-3.773 2.394-1.381v-2.763-7.517-2.763l-2.394-1.375-6.525-3.743L11.295.7h.012z"/></g><defs><clipPath id="A"><path fill="#fff" d="M0 0h85v28H0z"/></clipPath></defs></svg>