<svg xmlns="http://www.w3.org/2000/svg" width="122" height="40" fill="none"><g clip-path="url(#A)" fill="#375bd2"><path d="M41.884 19.393a6.56 6.56 0 0 1 .436-2.603 6.59 6.59 0 0 1 1.428-2.225c.622-.638 1.367-1.145 2.191-1.49a6.66 6.66 0 0 1 2.603-.516c3.368 0 5.361 1.965 5.963 4.271l-2.114.709c-.186-.86-.678-1.624-1.385-2.153s-1.582-.786-2.465-.726c-2.182 0-4.364 1.58-4.364 4.775s2.131 4.716 4.39 4.716c.887.026 1.758-.246 2.471-.771a3.94 3.94 0 0 0 1.464-2.125l2.053.666c-.352 1.3-1.14 2.441-2.234 3.233a5.95 5.95 0 0 1-3.78 1.123 6.58 6.58 0 0 1-2.631-.495 6.56 6.56 0 0 1-2.211-1.501 6.51 6.51 0 0 1-1.422-2.256c-.313-.841-.447-1.738-.395-2.633zm16.745 6.569h-2.165V12.524h2.165v5.271a3.23 3.23 0 0 1 1.157-.862c.447-.197.932-.29 1.42-.274 2.242 0 3.325 1.598 3.325 3.588v5.715h-2.105v-5.348a1.74 1.74 0 0 0-.059-.777 1.75 1.75 0 0 0-.392-.675c-.18-.193-.401-.343-.648-.439a1.77 1.77 0 0 0-.775-.116 1.9 1.9 0 0 0-.76.159 1.89 1.89 0 0 0-.632.45 1.87 1.87 0 0 0-.489 1.432l-.043 5.314zm10.739-5.177l2.328-.359c.524-.068.67-.333.67-.649 0-.76-.516-1.375-1.718-1.375a1.73 1.73 0 0 0-.687.08 1.72 1.72 0 0 0-.599.343 1.71 1.71 0 0 0-.415.55 1.7 1.7 0 0 0-.163.668l-1.976-.444c.163-1.563 1.589-2.956 3.823-2.956 2.801 0 3.866 1.58 3.866 3.417v4.485a8.39 8.39 0 0 0 .112 1.452H72.59a5.47 5.47 0 0 1-.086-1.153c-.302.46-.719.833-1.21 1.083a3.18 3.18 0 0 1-1.591.343 2.87 2.87 0 0 1-1.137-.136 2.84 2.84 0 0 1-1.677-1.482c-.164-.347-.256-.724-.27-1.107 0-1.649 1.194-2.537 2.749-2.759zm2.998 1.452v-.41l-2.371.35a1.26 1.26 0 0 0-.853.374 1.24 1.24 0 0 0-.358.856 1.19 1.19 0 0 0 .403.874c.125.11.27.193.429.244a1.21 1.21 0 0 0 .491.052 2.08 2.08 0 0 0 .924-.116 2.07 2.07 0 0 0 .78-.507c.218-.226.381-.498.477-.795s.123-.613.078-.923zm5.809-9.901c.188-.002.374.033.548.102s.332.173.466.304a1.41 1.41 0 0 1 .422 1.002c0 .372-.148.728-.413.991s-.623.41-.996.41-.732-.148-.996-.41-.413-.619-.413-.991a1.4 1.4 0 0 1 .403-.985 1.42 1.42 0 0 1 .98-.425zm-1.057 13.668v-9.081h2.139v9.038l-2.139.043zm7.105-.042h-2.165v-9.038h2.114v1.204a3 3 0 0 1 1.142-1.101 3.02 3.02 0 0 1 1.547-.368c2.217 0 3.282 1.598 3.282 3.588v5.715h-2.165v-5.348c0-1.111-.507-2.008-1.864-2.008a1.94 1.94 0 0 0-.783.171 1.91 1.91 0 0 0-.644.475c-.179.202-.312.439-.392.695s-.104.527-.072.794v5.22zm8.557 0V12.524h2.165v13.438H92.78zm6.031-13.626a1.42 1.42 0 0 1 1.002.413c.266.264.415.623.415.997a1.4 1.4 0 0 1-.241.775 1.41 1.41 0 0 1-.633.512 1.42 1.42 0 0 1-.812.078 1.41 1.41 0 0 1-.719-.383 1.4 1.4 0 0 1-.385-.715c-.055-.271-.027-.552.078-.808s.285-.475.515-.629.502-.238.78-.24zm-1.065 13.668v-9.081h2.148v9.038l-2.148.043zm7.114-.042h-2.165v-9.038h2.105v1.204a3.01 3.01 0 0 1 1.143-1.099 3.04 3.04 0 0 1 1.546-.37c2.225 0 3.29 1.598 3.29 3.588v5.715h-2.165v-5.348a1.73 1.73 0 0 0-.058-.777 1.75 1.75 0 0 0-.392-.675 1.76 1.76 0 0 0-.648-.439 1.77 1.77 0 0 0-.775-.116 1.93 1.93 0 0 0-.781.171 1.92 1.92 0 0 0-.643.475 1.89 1.89 0 0 0-.389.696c-.079.257-.102.527-.068.793v5.22zm13.325-5.22l3.815 5.22h-2.655l-2.672-3.725-1.117 1.17v2.563h-2.148V12.524h2.148v8.056l3.489-3.656h2.878l-3.738 3.819zM16.229 8.893l9.365 5.348v10.738l-9.339 5.382-9.365-5.339V14.284l9.339-5.39zm0-7.893l-3.437 1.982-9.356 5.39L0 10.354v3.947 10.73 3.947l3.437 1.965 9.365 5.348 3.437 1.965 3.437-1.982 9.339-5.39 3.437-1.973v-3.947-10.738-3.947l-3.437-1.965-9.365-5.348L16.212 1h.017z"/></g><defs><clipPath id="A"><path fill="#fff" d="M0 0h122v40H0z"/></clipPath></defs></svg>