<svg xmlns="http://www.w3.org/2000/svg" width="30" height="30" fill="#fffffe" fill-rule="evenodd" xmlns:v="https://vecta.io/nano"><path d="M15.027.111C6.759.111.055 6.814.055 15.085c0 6.616 4.29 12.229 10.239 14.209.748.139 1.023-.325 1.023-.72l-.02-2.788c-4.165.906-5.044-1.767-5.044-1.767-.681-1.731-1.662-2.191-1.662-2.191-1.358-.929.102-.91.102-.91 1.503.105 2.295 1.543 2.295 1.543 1.335 2.289 3.503 1.627 4.357 1.245.134-.968.522-1.629.951-2.002-3.326-.379-6.821-1.663-6.821-7.4 0-1.635.585-2.971 1.543-4.019-.155-.377-.668-1.9.145-3.963 0 0 1.257-.402 4.118 1.535a14.35 14.35 0 0 1 3.748-.504c1.272.006 2.554.172 3.751.504 2.858-1.937 4.113-1.535 4.113-1.535.815 2.063.302 3.585.147 3.963.96 1.049 1.541 2.384 1.541 4.019 0 5.751-3.503 7.018-6.837 7.388.537.465 1.016 1.376 1.016 2.773l-.017 4.109c0 .398.27.865 1.028.718 5.946-1.982 10.23-7.593 10.23-14.207 0-8.27-6.703-14.974-14.972-14.974"/><path d="M5.726 21.61c-.033.075-.15.097-.257.046s-.17-.15-.134-.225.15-.098.258-.047.171.152.133.226m.606.677c-.071.066-.211.035-.306-.069s-.116-.244-.044-.311.209-.035.307.069.117.244.042.311m.591.862c-.092.064-.242.004-.334-.129s-.092-.293.002-.357.241-.006.335.126.091.295-.002.36m.808.833c-.082.091-.257.066-.385-.057s-.167-.292-.085-.383.259-.065.388.057.17.293.082.383m1.116.484c-.036.117-.205.171-.374.121s-.28-.189-.246-.307.204-.174.375-.12.28.187.245.307m1.225.089c.004.123-.14.226-.318.228s-.324-.096-.326-.217.141-.226.32-.229.324.096.324.218m1.14-.194c.021.121-.102.244-.279.277s-.335-.042-.357-.162.104-.247.278-.279.335.042.358.164"/></svg>