<svg xmlns="http://www.w3.org/2000/svg" viewBox="0 0 35 35" fill="#fff" xmlns:v="https://vecta.io/nano"><path d="M29.327 0h-16v21.583h21.6v-16c-.001-1.483-.591-2.906-1.642-3.953A5.59 5.59 0 0 0 29.327 0zM8.342 0H5.585a5.58 5.58 0 0 0-3.949 1.636A5.59 5.59 0 0 0 0 5.585v2.757h8.342zM0 13.329h8.342v8.342H0zm26.658 21.6h2.757c1.484 0 2.907-.59 3.955-1.641s1.634-2.475 1.63-3.959v-2.671h-8.342zm-13.329-8.271h8.342V35h-8.342zM0 26.658v2.757a5.58 5.58 0 0 0 1.636 3.949A5.59 5.59 0 0 0 5.585 35h2.757v-8.342z"/></svg>