<svg xmlns="http://www.w3.org/2000/svg" width="128" height="128" fill="#fff" fill-rule="evenodd" xmlns:v="https://vecta.io/nano"><path opacity="0" d="M0 0h128v128H0z"/><path d="M90.847 57.761a5.83 5.83 0 1 1 8.246-8.246 5.83 5.83 0 1 1-8.246 8.246zM71.263 77.345c-1.708-1.708-1.708-4.477 0-6.184s4.477-1.708 6.184 0 1.708 4.477 0 6.184-4.477 1.708-6.184 0zm30.922-10.307c-1.708-1.708-1.708-4.477 0-6.184s4.477-1.708 6.184 0 1.708 4.477 0 6.184-4.477 1.708-6.184 0zM91.878 77.345c-1.708-1.708-1.708-4.477 0-6.184s4.477-1.708 6.184 0 1.708 4.477 0 6.184-4.477 1.708-6.184 0zm21.645-1.031c-1.139-1.139-1.139-2.984 0-4.123s2.984-1.139 4.123 0 1.139 2.984 0 4.123-2.984 1.139-4.123 0zm-10.307 10.307c-1.139-1.139-1.139-2.984 0-4.123s2.984-1.139 4.123 0 1.139 2.984 0 4.123-2.984 1.139-4.123 0zM80.54 68.068a5.83 5.83 0 1 1 8.246-8.246 5.83 5.83 0 1 1-8.246 8.246zm0-20.615a5.83 5.83 0 1 1 8.246-8.246 5.83 5.83 0 1 1-8.246 8.246zM70.232 57.761a5.83 5.83 0 1 1 8.246-8.246 5.83 5.83 0 1 1-8.246 8.246zm-20.711 0a5.83 5.83 0 1 1 8.246-8.246 5.83 5.83 0 1 1-8.246 8.246zM29.938 77.345c-1.708-1.708-1.708-4.477 0-6.184s4.477-1.708 6.184 0 1.708 4.477 0 6.184-4.477 1.708-6.184 0zM60.86 67.038c-1.708-1.708-1.708-4.477 0-6.184s4.477-1.708 6.184 0 1.708 4.477 0 6.184-4.477 1.708-6.184 0zM50.553 77.345c-1.708-1.708-1.708-4.477 0-6.184s4.477-1.708 6.184 0 1.708 4.477 0 6.184-4.477 1.708-6.184 0zm-40.199-1.031c-1.139-1.139-1.139-2.984 0-4.123s2.984-1.139 4.123 0 1.139 2.984 0 4.123-2.984 1.139-4.123 0zm10.307 10.307c-1.139-1.139-1.139-2.984 0-4.123s2.984-1.139 4.123 0 1.139 2.984 0 4.123-2.984 1.139-4.123 0zm41.229 0c-1.139-1.139-1.139-2.984 0-4.123s2.984-1.139 4.123 0 1.139 2.984 0 4.123-2.984 1.139-4.123 0zm-42.26-19.584c-1.708-1.708-1.708-4.477 0-6.184s4.477-1.708 6.184 0 1.708 4.477 0 6.184-4.477 1.708-6.184 0zm19.584 1.031a5.83 5.83 0 1 1 8.246-8.246 5.83 5.83 0 1 1-8.246 8.246zm0-20.615a5.83 5.83 0 1 1 8.246-8.246 5.83 5.83 0 1 1-8.246 8.246zM28.907 57.761a5.83 5.83 0 1 1 8.246-8.246 5.83 5.83 0 1 1-8.246 8.246z"/></svg>