<svg xmlns="http://www.w3.org/2000/svg" width="30" height="30" xmlns:v="https://vecta.io/nano"><path d="M0 15C0 6.716 6.716 0 15 0s15 6.716 15 15-6.716 15-15 15S0 23.284 0 15zm16.845 0c0 3.314-2.652 6-5.923 6S5 18.313 5 15s2.652-6 5.923-6 5.923 2.686 5.923 6m6.497 0c0 3.119-1.326 5.649-2.961 5.649S17.42 18.119 17.42 15s1.326-5.649 2.961-5.649S23.342 11.88 23.342 15M26 15c0 2.794-.466 5.06-1.042 5.06s-1.041-2.266-1.041-5.06.466-5.06 1.041-5.06S26 12.205 26 15" fill="#fff" fill-rule="evenodd"/></svg>