<svg xmlns="http://www.w3.org/2000/svg" width="150" height="55" fill="none" xmlns:v="https://vecta.io/nano"><g fill="#8246fa"><path d="M5.552 54.505a.73.73 0 0 1-.74-.74V16.844c-.093-1.573.093-7.31 4.534-11.937C10.734 3.426 14.621.095 20.543.002c5.737-.093 9.716 2.961 11.104 4.257 1.481 1.388 4.904 5.182 5.089 11.197.185 6.107-3.239 10.086-4.627 11.567-4.072 4.164-9.068 4.627-11.012 4.719a.8.8 0 0 1-.74-.74c0-.463.278-.74.74-.74 1.758 0 6.292-.555 9.994-4.257 1.018-1.018 4.349-4.812 4.257-10.456-.093-5.552-3.516-9.161-4.627-10.086-1.018-.925-4.534-3.794-9.809-3.794h-.278c-5.367.093-8.883 3.146-10.179 4.442-4.072 4.072-4.164 9.254-4.164 10.734v36.922c0 .463-.278.74-.74.74zm15.084-33.127c-2.961 0-5.367-2.406-5.367-5.367s2.406-5.367 5.367-5.367 5.367 2.406 5.367 5.367-2.406 5.367-5.367 5.367zm0-9.346c-2.128 0-3.887 1.758-3.887 3.887s1.758 3.887 3.887 3.887a3.91 3.91 0 0 0 3.886-3.886c0-2.128-1.758-3.887-3.886-3.887zM10.549 41.55a.73.73 0 0 1-.74-.74V16.844a.73.73 0 0 1 .74-.74.8.8 0 0 1 .74.74V40.81a.8.8 0 0 1-.74.74zm5.367 7.496a.73.73 0 0 1-.74-.74v-12.77a.73.73 0 0 1 .74-.74.8.8 0 0 1 .74.74v12.77c.093.37-.278.74-.74.74z"/><path d="M.74 43.031a.73.73 0 0 1-.74-.74V26.005a.73.73 0 0 1 .74-.74.8.8 0 0 1 .74.74v16.286c0 .463-.278.74-.74.74zm19.896-16.286c-6.015 0-10.827-4.904-10.827-10.827S14.621 5.091 20.636 5.091s10.827 4.904 10.827 10.827-4.904 10.827-10.827 10.827zm0-20.173a9.32 9.32 0 0 0-9.346 9.346 9.32 9.32 0 0 0 9.346 9.346 9.32 9.32 0 0 0 9.346-9.346c0-5.182-4.257-9.346-9.346-9.346z"/></g><path d="M98.273 14.9h-3.146c-.185 0-.278.093-.37.185l-5.645 7.31c-.37.463-.648.925-.925 1.295-.185-.37-.555-.833-.925-1.295l-5.737-7.31c-.093-.092-.185-.185-.37-.185H78.1c-.185 0-.37.093-.37.278-.093.185-.093.37.093.463l8.606 11.289v10.086c0 .278.185.463.463.463h2.684c.278 0 .463-.185.463-.463V26.837l8.606-11.289c.093-.185.093-.37.093-.463-.093 0-.278-.185-.463-.185zm24.985 0h-18.785c-.278 0-.463.185-.463.463v2.313c0 .278.185.463.463.463h7.588v18.877c0 .278.185.463.463.463h2.683c.278 0 .463-.185.463-.463V18.232h7.588c.277 0 .462-.185.462-.463v-2.313c0-.278-.185-.555-.462-.555zm-60.981 0h-8.883c-.278 0-.463.185-.463.463v21.653c0 .278.185.463.463.463h2.684c.278 0 .463-.185.463-.463v-3.701-1.295-3.239-.555-10.179h6.015c3.331 0 5.737 2.221 5.737 5.367s-2.406 5.367-5.83 5.367h-.925s-.278 0-.37.185c-.093.093-.093.278-.093.278v2.313a.92.92 0 0 0 .093.37c.093.093.278.093.37.093h.648c.463 0 5.089.278 7.866-3.239 1.758-2.221 1.851-4.812 1.851-5.367.185-4.997-3.794-8.513-9.624-8.513zm72.455 8.976v-8.513c0-.278-.185-.463-.463-.463h-2.683c-.278 0-.463.185-.463.463v21.653c0 .278.185.463.463.463h2.683c.278 0 .463-.185.463-.463v-9.901M149.538 14.9h-2.684c-.278 0-.463.185-.463.463v8.513h-7.31a.4.4 0 0 0-.37.37v2.499a.4.4 0 0 0 .37.37h7.31v9.994c0 .278.185.463.463.463h2.684c.277 0 .462-.185.462-.463V15.363c0-.185-.185-.463-.462-.463z" fill="#fff"/></svg>