<svg xmlns="http://www.w3.org/2000/svg" xmlns:xlink="http://www.w3.org/1999/xlink" width="60" height="57" xmlns:v="https://vecta.io/nano"><defs><path d="M42.995 43.167c2.449-.007 4.439 1.973 4.446 4.422s-1.973 4.439-4.422 4.446h0l-2.822.007.013 4.952-2.303.006-.037-13.82zm-16.047.001v2.303h-.576c-.878 0-1.593.702-1.612 1.576h0v.381h2.188v2.303H24.76v7.255h-2.303v-7.255H21.42v-2.303h1.036v-.806c0-1.908 1.547-3.455 3.455-3.455h0 1.036zm5.24 4.261a4.78 4.78 0 0 1 4.779 4.779 4.79 4.79 0 0 1-.154 1.209h0-6.786c.424.756 1.233 1.267 2.161 1.267.443 0 .859-.116 1.219-.32h0v.008l2.516.819a4.77 4.77 0 0 1-3.735 1.797 4.78 4.78 0 0 1-4.779-4.779 4.78 4.78 0 0 1 4.779-4.779zM4.906 43.168c2.178 0 3.845 1.12 4.735 2.98l-2.457.794c-.471-.744-1.158-1.231-2.277-1.231-1.099 0-1.743.569-1.743 1.329 0 .816.511 1.253 2.519 1.86 2.102.664 4.337 1.367 4.337 4.081 0 2.487-1.989 4.005-4.811 4.005C2.5 56.987.72 55.677 0 53.703l2.51-.733c.527.9 1.401 1.454 2.775 1.454 1.572 0 2.121-.664 2.121-1.405 0-.987-.89-1.367-2.86-1.936-2.027-.588-3.996-1.443-3.996-3.967 0-2.506 2.083-3.948 4.356-3.948zM60 43.216v13.771h-2.303V43.964L60 43.216zm-8.005 4.213l.037.001.198.005a4.75 4.75 0 0 1 2.365.761h0l2.181-.732v9.522h-2.281v-.705a4.59 4.59 0 0 1-.451.245h0c-.233.107-.472.2-.718.272h0l-.047.013h0l-.178.046-.09.021h0l-.143.028h0l-.111.02-.141.019-.11.014-.173.015-.079.005-.261.007a4.75 4.75 0 0 1-2.846-.941c-.184-.14-.361-.294-.533-.466a5.28 5.28 0 0 1-.448-.51c-.556-.743-.901-1.654-.945-2.642l-.005-.199h0v-.024a4.78 4.78 0 0 1 4.778-4.776zm-36.276 0l.037.001.198.005a4.75 4.75 0 0 1 2.365.761h0l2.181-.732v9.522h-2.281v-.705a4.59 4.59 0 0 1-.451.245h0c-.233.107-.472.2-.718.272l-.047.013-.178.046-.09.021-.143.028-.111.02-.141.019-.11.014-.173.015-.079.005-.26.007a4.75 4.75 0 0 1-2.846-.941c-.184-.14-.361-.294-.533-.466a5.28 5.28 0 0 1-.448-.51c-.556-.743-.901-1.654-.945-2.642l-.005-.199h0v-.024a4.78 4.78 0 0 1 4.778-4.776zm36.221 2.188c-1.4 0-2.534 1.134-2.534 2.534s1.134 2.533 2.534 2.533 2.533-1.134 2.533-2.533-1.134-2.534-2.533-2.534zm-36.276 0c-1.4 0-2.534 1.134-2.534 2.534s1.135 2.533 2.534 2.533 2.533-1.134 2.533-2.533-1.134-2.534-2.533-2.534zm16.525.115c-.975 0-1.818.563-2.222 1.382h0 4.444c-.404-.819-1.247-1.382-2.222-1.382zM43.04 45.47h-.039l-2.821.007.012 4.261 2.821-.007a2.13 2.13 0 1 0 .027-4.261h0zm3.691-23.038v2.736c0 7.601-11.028 11.975-14.409 13.136l-1.229.425V34l.601-.227c5.259-1.979 10.566-5.408 10.566-8.605v-2.736h4.471zM30.029 0l4.507 1.39v4.824L30.029 4.82l-.295.091v10.855h4.802v4.472h-4.802v18.424l-1.252-.467a41.88 41.88 0 0 1-2.676-1.11l-.544-.249V1.471L30.029 0zm-6.181 1.925v4.802l-6.107 1.896v7.142h6.107v20.685l-1.353-.696c-4.209-2.166-9.226-5.819-9.226-10.919v-2.404h4.472v2.404c0 1.055.549 2.164 1.634 3.306v-7.904h-6.106V5.19l10.578-3.265zm12.046-.114l10.838 3.354v15.073h-6.363v6.527s-1.423 1.865-4.471 3.427v-.524-.141l-.001-7.247v-.397l-.001-6.782v-.433l-.001-6.525v-.365l-.001-5.967h0zm4.475 6.207v7.748h1.892V8.602l-1.892-.584z" id="A"/></defs><use fill="#3f37ff" xlink:href="#A" fill-rule="evenodd"/></svg>