<svg xmlns="http://www.w3.org/2000/svg" width="40" height="40" fill="none" xmlns:v="https://vecta.io/nano"><path d="M24.892 24.967l5.101 6.08-6.3-4.811c-1.465-1.114-3.576-.167-3.73 1.676L18.956 40l-1.614-11.815c-.254-1.876-2.493-2.689-3.88-1.414L0 39.165l11.81-13.781c1.244-1.448.332-3.708-1.564-3.87L.077 20.523l10.434-1.648c1.818-.251 2.647-2.428 1.465-3.842l-5.101-6.08 6.295 4.811c1.465 1.114 3.576.167 3.731-1.676L17.912 0l1.608 11.815c.26 1.876 2.498 2.689 3.88 1.414L36.868.835 25.052 14.616c-1.244 1.448-.326 3.708 1.57 3.87l10.169.991-10.44 1.648c-1.818.251-2.642 2.428-1.459 3.842z" fill="url(#A)"/><defs><linearGradient id="A" x1="11.835" y1="14.219" x2="21.429" y2="22.5" gradientUnits="userSpaceOnUse"><stop stop-color="#ffc10b"/><stop offset="1" stop-color="#fb3f2e"/></linearGradient></defs></svg>