<svg xmlns="http://www.w3.org/2000/svg" width="530" height="530" fill="#00ffa3" xmlns:v="https://vecta.io/nano"><path d="M88.889 372.982A17.03 17.03 0 0 1 100.924 368h416.461c7.586 0 11.384 9.174 6.017 14.536l-82.291 82.226c-3.193 3.191-7.522 4.983-12.036 4.983H12.615c-7.587 0-11.384-9.174-6.018-14.537l82.292-82.226zm0-306.999A17.03 17.03 0 0 1 100.924 61h416.461c7.586 0 11.384 9.174 6.017 14.536l-82.291 82.227a17.03 17.03 0 0 1-12.036 4.982H12.615c-7.587 0-11.384-9.174-6.018-14.536l82.292-82.226z"/><path d="M441.111 219.11a17.03 17.03 0 0 0-12.036-4.982H12.615c-7.587 0-11.384 9.173-6.018 14.536l82.292 82.226a17.03 17.03 0 0 0 12.035 4.983h416.461c7.586 0 11.384-9.174 6.017-14.537l-82.291-82.226z"/></svg>