<svg xmlns="http://www.w3.org/2000/svg" width="30" height="30" xmlns:v="https://vecta.io/nano"><path d="M15 0c8.284 0 15 6.716 15 15s-6.716 15-15 15S0 23.284 0 15 6.716 0 15 0zm1.597 9.142c-1.312.477-2.14 1.705-2.046 3.051l.031.519-.525-.064c-1.91-.244-3.578-1.07-4.994-2.457l-.692-.689-.178.508c-.378 1.133-.136 2.33.651 3.135.42.445.325.508-.399.244-.252-.085-.472-.148-.493-.117-.073.074.178 1.038.378 1.419.273.53.829 1.049 1.437 1.356l.514.244-.609.011c-.588 0-.609.011-.546.233.21.689 1.039 1.419 1.962 1.737l.651.222-.567.339c-.839.487-1.826.763-2.812.784-.472.011-.86.053-.86.085 0 .106 1.28.699 2.025.932 2.235.689 4.889.392 6.883-.784 1.416-.837 2.833-2.5 3.494-4.11.357-.858.713-2.426.713-3.178 0-.487.031-.551.619-1.133.346-.339.672-.71.734-.816.105-.201.094-.201-.441-.021-.892.318-1.018.275-.577-.201.325-.339.713-.953.713-1.133 0-.032-.157.021-.336.117-.189.106-.609.265-.923.36l-.567.18-.514-.35c-.283-.191-.682-.403-.892-.466-.535-.148-1.353-.127-1.836.042z" fill="#fff" fill-rule="evenodd"/></svg>